{
    "asset" : {
        "generator" : "Khronos glTF Blender I/O v3.2.43",
        "version" : "2.0"
    },
    "scene" : 0,
    "scenes" : [
        {
            "name" : "Scene",
            "nodes" : [
                24
            ]
        }
    ],
    "nodes" : [
        {
            "name" : "Foot IKBackRight",
            "rotation" : [
                0.0010609101736918092,
                0.024611538276076317,
                -0.016065070405602455,
                0.999567449092865
            ],
            "scale" : [
                0.9999999403953552,
                1,
                1
            ],
            "translation" : [
                1.862645149230957e-08,
                0.6065269708633423,
                1.862645149230957e-09
            ]
        },
        {
            "children" : [
                0
            ],
            "name" : "leg3BackRight",
            "rotation" : [
                -0.00475462106987834,
                0.005771258380264044,
                -0.01805645413696766,
                0.9998090267181396
            ],
            "scale" : [
                1,
                1,
                0.9999999403953552
            ],
            "translation" : [
                -3.876630216836929e-08,
                0.5994032025337219,
                -5.529727786779404e-09
            ]
        },
        {
            "children" : [
                1
            ],
            "name" : "leg2BackRight",
            "rotation" : [
                0.001511850394308567,
                0.004424118436872959,
                -0.0025847256183624268,
                0.9999857544898987
            ],
            "scale" : [
                0.9999999403953552,
                0.9999998807907104,
                0.9999998807907104
            ],
            "translation" : [
                8.87666828930378e-09,
                0.6379739046096802,
                -2.0954757928848267e-09
            ]
        },
        {
            "children" : [
                2
            ],
            "name" : "leg1BackRight",
            "rotation" : [
                0.041704900562763214,
                -0.01981867104768753,
                -0.01485508307814598,
                0.9988229274749756
            ],
            "translation" : [
                -2.0489096641540527e-08,
                0.1557828038930893,
                5.587935447692871e-09
            ]
        },
        {
            "children" : [
                3
            ],
            "name" : "leg0BackRight",
            "rotation" : [
                -0.2792990207672119,
                -0.6172544360160828,
                -0.6803200244903564,
                0.279559850692749
            ],
            "scale" : [
                0.9999999403953552,
                0.9999998807907104,
                1
            ],
            "translation" : [
                0.23752079904079437,
                -0.07095456123352051,
                0.22771038115024567
            ]
        },
        {
            "name" : "Foot IKFrontRight",
            "rotation" : [
                0.00600456353276968,
                0.05587434396147728,
                0.01475035771727562,
                0.9983108639717102
            ],
            "scale" : [
                0.9999998211860657,
                0.9999999403953552,
                0.9999998211860657
            ],
            "translation" : [
                1.855660229921341e-07,
                0.6324539184570312,
                -7.334165275096893e-09
            ]
        },
        {
            "children" : [
                5
            ],
            "name" : "leg3FrontRight",
            "rotation" : [
                -0.014055825769901276,
                0.010784061625599861,
                -0.005201288498938084,
                0.9998295307159424
            ],
            "scale" : [
                0.9999998211860657,
                0.9999998807907104,
                1.0000001192092896
            ],
            "translation" : [
                -2.2211315808817744e-07,
                0.6145099401473999,
                -1.257285475730896e-08
            ]
        },
        {
            "children" : [
                6
            ],
            "name" : "leg2FrontRight",
            "rotation" : [
                0.007401178125292063,
                0.008433143608272076,
                -0.014367982745170593,
                0.9998339414596558
            ],
            "scale" : [
                0.9999999403953552,
                1.0000001192092896,
                1
            ],
            "translation" : [
                4.773028194904327e-09,
                0.6191823482513428,
                5.587935447692871e-09
            ]
        },
        {
            "children" : [
                7
            ],
            "name" : "leg1FrontRight",
            "rotation" : [
                -0.0384029895067215,
                -0.035633597522974014,
                0.08293906599283218,
                0.9951766729354858
            ],
            "scale" : [
                1.0000001192092896,
                0.9999999403953552,
                0.9999998807907104
            ],
            "translation" : [
                -7.450580596923828e-09,
                0.16028009355068207,
                8.381903171539307e-09
            ]
        },
        {
            "children" : [
                8
            ],
            "name" : "leg0FrontRight",
            "rotation" : [
                -0.6041411757469177,
                -0.30382677912712097,
                -0.32896295189857483,
                0.6591556072235107
            ],
            "scale" : [
                0.9999999403953552,
                1,
                1
            ],
            "translation" : [
                0.23045261204242706,
                -0.07095456123352051,
                -0.2348610758781433
            ]
        },
        {
            "name" : "Foot IKFrontLeft",
            "rotation" : [
                -0.0611916221678257,
                -0.04452436417341232,
                -0.03756871446967125,
                0.9964246153831482
            ],
            "scale" : [
                0.9999999403953552,
                1,
                1.0000001192092896
            ],
            "translation" : [
                -2.7474015951156616e-08,
                0.6107808351516724,
                -5.587935447692871e-09
            ]
        },
        {
            "children" : [
                10
            ],
            "name" : "leg3FrontLeft",
            "rotation" : [
                0.010584468953311443,
                -0.009346503764390945,
                0.008387629874050617,
                0.9998651146888733
            ],
            "scale" : [
                1,
                0.9999999403953552,
                1.0000001192092896
            ],
            "translation" : [
                -3.8475263863801956e-08,
                0.6240527033805847,
                4.6566128730773926e-09
            ]
        },
        {
            "children" : [
                11
            ],
            "name" : "leg2FrontLeft",
            "rotation" : [
                -0.009908195585012436,
                -0.008372634649276733,
                -0.008760315366089344,
                0.9998775124549866
            ],
            "scale" : [
                0.9999999403953552,
                0.9999999403953552,
                0.9999998807907104
            ],
            "translation" : [
                1.739244908094406e-07,
                0.6236816644668579,
                -5.820766091346741e-09
            ]
        },
        {
            "children" : [
                12
            ],
            "name" : "leg1FrontLeft",
            "rotation" : [
                0.015044653788208961,
                0.037334661930799484,
                -0.005545106250792742,
                0.9991742968559265
            ],
            "scale" : [
                0.9999999403953552,
                1,
                1
            ],
            "translation" : [
                2.1886080503463745e-08,
                0.15371403098106384,
                -4.6566128730773926e-09
            ]
        },
        {
            "children" : [
                13
            ],
            "name" : "leg0FrontLeft",
            "rotation" : [
                -0.6499735713005066,
                0.2515365481376648,
                0.30263397097587585,
                0.6501356959342957
            ],
            "scale" : [
                1,
                1,
                0.9999999403953552
            ],
            "translation" : [
                -0.23045261204242706,
                -0.07095456123352051,
                -0.2348610758781433
            ]
        },
        {
            "name" : "Foot IKBackLeft",
            "rotation" : [
                -0.0033584730699658394,
                -0.02551514096558094,
                -0.02448701113462448,
                0.9993688464164734
            ],
            "scale" : [
                0.9999998807907104,
                1,
                1
            ],
            "translation" : [
                -1.0943040251731873e-08,
                0.6311143636703491,
                4.6566128730773926e-09
            ]
        },
        {
            "children" : [
                15
            ],
            "name" : "leg3BackLeft",
            "rotation" : [
                -0.010133607313036919,
                -0.0055839684791862965,
                0.003131335834041238,
                0.9999281764030457
            ],
            "scale" : [
                0.9999999403953552,
                1.0000001192092896,
                0.9999999403953552
            ],
            "translation" : [
                -1.3416865840554237e-08,
                0.613336443901062,
                6.752088665962219e-09
            ]
        },
        {
            "children" : [
                16
            ],
            "name" : "leg2BackLeft",
            "rotation" : [
                -0.0018612685380503535,
                -0.004421379882842302,
                -0.003193530021235347,
                0.9999834299087524
            ],
            "scale" : [
                0.9999999403953552,
                0.9999999403953552,
                0.9999998211860657
            ],
            "translation" : [
                1.7695128917694092e-08,
                0.6240449547767639,
                1.1175870895385742e-08
            ]
        },
        {
            "children" : [
                17
            ],
            "name" : "leg1BackLeft",
            "rotation" : [
                0.013374103233218193,
                0.01981399953365326,
                -0.01140369102358818,
                0.999649167060852
            ],
            "scale" : [
                1,
                1.0000001192092896,
                1
            ],
            "translation" : [
                -5.122274160385132e-09,
                0.1533634066581726,
                2.561137080192566e-09
            ]
        },
        {
            "children" : [
                18
            ],
            "name" : "leg0BackLeft",
            "rotation" : [
                -0.25677233934402466,
                0.6426990032196045,
                0.6684261560440063,
                0.27241966128349304
            ],
            "scale" : [
                0.9999999403953552,
                0.9999998807907104,
                0.9999999403953552
            ],
            "translation" : [
                -0.23752079904079437,
                -0.07095456123352051,
                0.22771038115024567
            ]
        },
        {
            "mesh" : 1,
            "name" : "Body",
            "scale" : [
                0.3258560299873352,
                0.3258560299873352,
                0.3258560299873352
            ]
        },
        {
            "mesh" : 2,
            "name" : "Cylinder",
            "rotation" : [
                0.7071068286895752,
                0,
                0,
                0.7071068286895752
            ],
            "scale" : [
                0.3258560299873352,
                0.3258560299873352,
                0.3258560299873352
            ],
            "translation" : [
                0,
                0.1010153666138649,
                -0.34866592288017273
            ]
        },
        {
            "children" : [
                4,
                9,
                14,
                19,
                20,
                21
            ],
            "name" : "Body"
        },
        {
            "mesh" : 0,
            "name" : "Leg",
            "skin" : 0
        },
        {
            "children" : [
                23,
                22
            ],
            "name" : "Armature",
            "scale" : [
                3.0688400268554688,
                3.0688400268554688,
                3.0688400268554688
            ]
        }
    ],
    "materials" : [
        {
            "doubleSided" : true,
            "name" : "Material",
            "pbrMetallicRoughness" : {
                "baseColorFactor" : [
                    0.800000011920929,
                    0.800000011920929,
                    0.800000011920929,
                    1
                ],
                "metallicFactor" : 0,
                "roughnessFactor" : 0.4000000059604645
            }
        }
    ],
    "meshes" : [
        {
            "name" : "Cylinder.002",
            "primitives" : [
                {
                    "attributes" : {
                        "POSITION" : 0,
                        "NORMAL" : 1,
                        "TEXCOORD_0" : 2,
                        "JOINTS_0" : 3,
                        "WEIGHTS_0" : 4
                    },
                    "indices" : 5
                }
            ]
        },
        {
            "name" : "Cube",
            "primitives" : [
                {
                    "attributes" : {
                        "POSITION" : 7,
                        "NORMAL" : 8,
                        "TEXCOORD_0" : 9
                    },
                    "indices" : 10,
                    "material" : 0
                }
            ]
        },
        {
            "name" : "Cylinder",
            "primitives" : [
                {
                    "attributes" : {
                        "POSITION" : 11,
                        "NORMAL" : 12,
                        "TEXCOORD_0" : 13
                    },
                    "indices" : 14
                }
            ]
        }
    ],
    "skins" : [
        {
            "inverseBindMatrices" : 6,
            "joints" : [
                22,
                4,
                3,
                2,
                1,
                0,
                9,
                8,
                7,
                6,
                5,
                14,
                13,
                12,
                11,
                10,
                19,
                18,
                17,
                16,
                15
            ],
            "name" : "Armature"
        }
    ],
    "accessors" : [
        {
            "bufferView" : 0,
            "componentType" : 5126,
            "count" : 2536,
            "max" : [
                5.065629005432129,
                0.10782650113105774,
                5.030699253082275
            ],
            "min" : [
                -5.065629005432129,
                -0.362204372882843,
                -5.030699253082275
            ],
            "type" : "VEC3"
        },
        {
            "bufferView" : 1,
            "componentType" : 5126,
            "count" : 2536,
            "type" : "VEC3"
        },
        {
            "bufferView" : 2,
            "componentType" : 5126,
            "count" : 2536,
            "type" : "VEC2"
        },
        {
            "bufferView" : 3,
            "componentType" : 5121,
            "count" : 2536,
            "type" : "VEC4"
        },
        {
            "bufferView" : 4,
            "componentType" : 5126,
            "count" : 2536,
            "type" : "VEC4"
        },
        {
            "bufferView" : 5,
            "componentType" : 5123,
            "count" : 4272,
            "type" : "SCALAR"
        },
        {
            "bufferView" : 6,
            "componentType" : 5126,
            "count" : 21,
            "type" : "MAT4"
        },
        {
            "bufferView" : 7,
            "componentType" : 5126,
            "count" : 222,
            "max" : [
                1,
                3.0700759887695312,
                1
            ],
            "min" : [
                -1,
                -0.009983360767364502,
                -1.1586166620254517
            ],
            "type" : "VEC3"
        },
        {
            "bufferView" : 8,
            "componentType" : 5126,
            "count" : 222,
            "type" : "VEC3"
        },
        {
            "bufferView" : 9,
            "componentType" : 5126,
            "count" : 222,
            "type" : "VEC2"
        },
        {
            "bufferView" : 10,
            "componentType" : 5123,
            "count" : 360,
            "type" : "SCALAR"
        },
        {
            "bufferView" : 11,
            "componentType" : 5126,
            "count" : 582,
            "max" : [
                0.1600000262260437,
                0.06999999284744263,
                0.1600000262260437
            ],
            "min" : [
                -0.1600000262260437,
                -0.06999999284744263,
                -1.0560002326965332
            ],
            "type" : "VEC3"
        },
        {
            "bufferView" : 12,
            "componentType" : 5126,
            "count" : 582,
            "type" : "VEC3"
        },
        {
            "bufferView" : 13,
            "componentType" : 5126,
            "count" : 582,
            "type" : "VEC2"
        },
        {
            "bufferView" : 14,
            "componentType" : 5123,
            "count" : 2268,
            "type" : "SCALAR"
        }
    ],
    "bufferViews" : [
        {
            "buffer" : 0,
            "byteLength" : 30432,
            "byteOffset" : 0
        },
        {
            "buffer" : 0,
            "byteLength" : 30432,
            "byteOffset" : 30432
        },
        {
            "buffer" : 0,
            "byteLength" : 20288,
            "byteOffset" : 60864
        },
        {
            "buffer" : 0,
            "byteLength" : 10144,
            "byteOffset" : 81152
        },
        {
            "buffer" : 0,
            "byteLength" : 40576,
            "byteOffset" : 91296
        },
        {
            "buffer" : 0,
            "byteLength" : 8544,
            "byteOffset" : 131872
        },
        {
            "buffer" : 0,
            "byteLength" : 1344,
            "byteOffset" : 140416
        },
        {
            "buffer" : 0,
            "byteLength" : 2664,
            "byteOffset" : 141760
        },
        {
            "buffer" : 0,
            "byteLength" : 2664,
            "byteOffset" : 144424
        },
        {
            "buffer" : 0,
            "byteLength" : 1776,
            "byteOffset" : 147088
        },
        {
            "buffer" : 0,
            "byteLength" : 720,
            "byteOffset" : 148864
        },
        {
            "buffer" : 0,
            "byteLength" : 6984,
            "byteOffset" : 149584
        },
        {
            "buffer" : 0,
            "byteLength" : 6984,
            "byteOffset" : 156568
        },
        {
            "buffer" : 0,
            "byteLength" : 4656,
            "byteOffset" : 163552
        },
        {
            "buffer" : 0,
            "byteLength" : 4536,
            "byteOffset" : 168208
        }
    ],
    "buffers" : [
        {
            "byteLength" : 172744,
            "uri" : "data:application/octet-stream;base64,"
        }
    ]
}
